<svg
    width="48"
    height="48"
    viewBox="0 0 48 48"
    version="1.1"
    xmlns="http://www.w3.org/2000/svg">
    <rect
        x="0" y="0" width="48" height="48"
        rx="8" ry="8"
        fill="#222222" />
    <path
        d="m 4.1039908,32.759998 v -17.52 h 4.536 q 1.7040002,0 2.9280002,0.648 1.248,0.648 1.92,1.824 0.696,1.176 0.696,2.784 v 6.984 q 0,1.608 -0.696,2.808 -0.672,1.176 -1.92,1.824 -1.224,0.648 -2.9280002,0.648 z m 2.16,-1.92 h 2.376 q 1.5840002,0 2.4720002,-0.888 0.912,-0.888 0.912,-2.472 v -6.984 q 0,-1.56 -0.912,-2.448 -0.888,-0.888 -2.4720002,-0.888 h -2.376 z"
        fill="#FF5722" />
    <path
        d="m 18.696,32.759998 v -17.52 h 10.08 v 1.968 h -7.944 v 5.424 h 7.104 v 1.92 h -7.104 v 6.24 h 7.944 v 1.968 z"
        fill="#FF5722" />
    <path
        d="m 36.408009,32.759998 -4.512,-17.52 h 2.208 l 3,11.928 q 0.312,1.248 0.504,2.304 0.216,1.056 0.312,1.608 0.096,-0.552 0.312,-1.608 0.24,-1.08 0.552,-2.328 l 2.88,-11.904 h 2.232 l -4.536,17.52 z"
        fill="#FF5722"/>
</svg>
